<svg xmlns="http://www.w3.org/2000/svg" viewBox="0 0 64 64" width="64" height="64">
  <!-- Petals (yellow) -->
  <ellipse cx="32" cy="12" rx="5" ry="10" fill="#F7E623" transform="rotate(0 32 32)"/>
  <ellipse cx="32" cy="12" rx="5" ry="10" fill="#F7E623" transform="rotate(30 32 32)"/>
  <ellipse cx="32" cy="12" rx="5" ry="10" fill="#F7E623" transform="rotate(60 32 32)"/>
  <ellipse cx="32" cy="12" rx="5" ry="10" fill="#F7E623" transform="rotate(90 32 32)"/>
  <ellipse cx="32" cy="12" rx="5" ry="10" fill="#F7E623" transform="rotate(120 32 32)"/>
  <ellipse cx="32" cy="12" rx="5" ry="10" fill="#F7E623" transform="rotate(150 32 32)"/>
  <ellipse cx="32" cy="12" rx="5" ry="10" fill="#F7E623" transform="rotate(180 32 32)"/>
  <ellipse cx="32" cy="12" rx="5" ry="10" fill="#F7E623" transform="rotate(210 32 32)"/>
  <ellipse cx="32" cy="12" rx="5" ry="10" fill="#F7E623" transform="rotate(240 32 32)"/>
  <ellipse cx="32" cy="12" rx="5" ry="10" fill="#F7E623" transform="rotate(270 32 32)"/>
  <ellipse cx="32" cy="12" rx="5" ry="10" fill="#F7E623" transform="rotate(300 32 32)"/>
  <ellipse cx="32" cy="12" rx="5" ry="10" fill="#F7E623" transform="rotate(330 32 32)"/>

  <!-- Black border ring around center -->
  <circle cx="32" cy="32" r="13" fill="#000"/>

  <!-- Brown center disc -->
  <circle cx="32" cy="32" r="12" fill="#7B3F00"/>

  <!-- Seed pattern (dot grid) -->
  <circle cx="32" cy="26" r="1.4" fill="#F7E623" opacity="0.7"/>
  <circle cx="28" cy="28" r="1.4" fill="#F7E623" opacity="0.7"/>
  <circle cx="36" cy="28" r="1.4" fill="#F7E623" opacity="0.7"/>
  <circle cx="26" cy="32" r="1.4" fill="#F7E623" opacity="0.7"/>
  <circle cx="32" cy="32" r="1.4" fill="#F7E623" opacity="0.7"/>
  <circle cx="38" cy="32" r="1.4" fill="#F7E623" opacity="0.7"/>
  <circle cx="28" cy="36" r="1.4" fill="#F7E623" opacity="0.7"/>
  <circle cx="36" cy="36" r="1.4" fill="#F7E623" opacity="0.7"/>
  <circle cx="32" cy="38" r="1.4" fill="#F7E623" opacity="0.7"/>
</svg>
